<svg width="111" height="25" viewBox="0 0 111 25" fill="none" xmlns="http://www.w3.org/2000/svg">
<path d="M0.761364 24V0.727272H6.38636V19.4318H16.0682V24H0.761364ZM33.0597 0.727272H38.6733V15.7386C38.6733 17.4735 38.2604 18.9848 37.4347 20.2727C36.6089 21.553 35.4574 22.5455 33.9801 23.25C32.5028 23.947 30.7869 24.2955 28.8324 24.2955C26.8551 24.2955 25.1278 23.947 23.6506 23.25C22.1733 22.5455 21.0256 21.553 20.2074 20.2727C19.3892 18.9848 18.9801 17.4735 18.9801 15.7386V0.727272H24.6051V15.25C24.6051 16.053 24.7794 16.7689 25.1278 17.3977C25.4839 18.0265 25.9801 18.5189 26.6165 18.875C27.2528 19.2311 27.9915 19.4091 28.8324 19.4091C29.6733 19.4091 30.4081 19.2311 31.0369 18.875C31.6733 18.5189 32.1695 18.0265 32.5256 17.3977C32.8816 16.7689 33.0597 16.053 33.0597 15.25V0.727272ZM63.3239 9.15909H57.642C57.5663 8.57576 57.411 8.04924 57.1761 7.57954C56.9413 7.10985 56.6307 6.70833 56.2443 6.375C55.858 6.04167 55.3996 5.78788 54.8693 5.61364C54.3466 5.43182 53.767 5.34091 53.1307 5.34091C52.0019 5.34091 51.0284 5.61742 50.2102 6.17045C49.3996 6.72348 48.7746 7.52273 48.3352 8.56818C47.9034 9.61364 47.6875 10.8788 47.6875 12.3636C47.6875 13.9091 47.9072 15.2045 48.3466 16.25C48.7936 17.2879 49.4186 18.072 50.2216 18.6023C51.0322 19.125 51.9905 19.3864 53.0966 19.3864C53.7178 19.3864 54.2822 19.3068 54.7898 19.1477C55.3049 18.9886 55.7557 18.7576 56.142 18.4545C56.536 18.1439 56.858 17.7689 57.108 17.3295C57.3655 16.8826 57.5436 16.3788 57.642 15.8182L63.3239 15.8523C63.2254 16.8826 62.9261 17.8977 62.4261 18.8977C61.9337 19.8977 61.2557 20.8106 60.392 21.6364C59.5284 22.4545 58.4754 23.1061 57.233 23.5909C55.9981 24.0758 54.5814 24.3182 52.983 24.3182C50.8769 24.3182 48.9905 23.8561 47.3239 22.9318C45.6648 22 44.3542 20.6439 43.392 18.8636C42.4299 17.0833 41.9489 14.9167 41.9489 12.3636C41.9489 9.80303 42.4375 7.63258 43.4148 5.85227C44.392 4.07197 45.714 2.7197 47.3807 1.79545C49.0473 0.871211 50.9148 0.40909 52.983 0.40909C54.392 0.40909 55.6951 0.60606 56.892 1C58.089 1.38636 59.142 1.95454 60.0511 2.70454C60.9602 3.44697 61.6989 4.35985 62.267 5.44318C62.8352 6.52652 63.1875 7.76515 63.3239 9.15909ZM66.5426 24V0.727272H72.1676V10.5682H72.4744L80.1676 0.727272H86.7926L78.5426 11.1136L86.9403 24H80.2131L74.4176 14.8523L72.1676 17.6932V24H66.5426ZM87.8523 0.727272H94.1364L99.0568 10.4659H99.2614L104.182 0.727272H110.466L101.955 16.2273V24H96.3636V16.2273L87.8523 0.727272Z" fill="#2F96F5"/>
</svg>
